<?xml version="1.0" encoding="utf-8"?>
<!-- Generator: Adobe Illustrator 16.0.3, SVG Export Plug-In . SVG Version: 6.00 Build 0)  -->
<!DOCTYPE svg PUBLIC "-//W3C//DTD SVG 1.1//EN" "http://www.w3.org/Graphics/SVG/1.1/DTD/svg11.dtd">
<svg version="1.1" id="Layer_1" xmlns="http://www.w3.org/2000/svg" xmlns:xlink="http://www.w3.org/1999/xlink" x="0px" y="0px"
	 width="30px" height="30px" viewBox="0 0 30 30" enable-background="new 0 0 30 30" xml:space="preserve">
<g>
	<path fill="#757676" d="M186.5,10.043c-7.995,0-14.5-6.505-14.5-14.5s6.505-14.5,14.5-14.5s14.5,6.505,14.5,14.5
		S194.495,10.043,186.5,10.043z M186.5-13.957c-5.238,0-9.5,4.262-9.5,9.5s4.262,9.5,9.5,9.5s9.5-4.262,9.5-9.5
		S191.738-13.957,186.5-13.957z"/>
</g>
<g>
	<path fill="#757676" d="M127.25-5.5c0-7.995,6.505-14.5,14.5-14.5s14.5,6.505,14.5,14.5S149.745,9,141.75,9
		S127.25,2.495,127.25-5.5z M132.25-5.5c0,5.238,4.262,9.5,9.5,9.5s9.5-4.262,9.5-9.5s-4.262-9.5-9.5-9.5S132.25-10.738,132.25-5.5z
		"/>
</g>
<g>
	<path fill="#333333" d="M195.25,47.5c-7.995,0-14.5-6.505-14.5-14.5s6.505-14.5,14.5-14.5s14.5,6.505,14.5,14.5
		S203.245,47.5,195.25,47.5z M195.25,23.5c-5.238,0-9.5,4.262-9.5,9.5s4.262,9.5,9.5,9.5s9.5-4.262,9.5-9.5
		S200.488,23.5,195.25,23.5z"/>
</g>
<g>
	<path fill="#333333" d="M123.583,33c0-7.995,6.505-14.5,14.5-14.5s14.5,6.505,14.5,14.5s-6.505,14.5-14.5,14.5
		S123.583,40.995,123.583,33z M128.583,33c0,5.238,4.262,9.5,9.5,9.5s9.5-4.262,9.5-9.5s-4.262-9.5-9.5-9.5
		S128.583,27.762,128.583,33z"/>
</g>
<g opacity="0.75">
	<path fill="#FFFFFF" d="M15,29.5C7.005,29.5,0.5,22.995,0.5,15S7.005,0.5,15,0.5S29.5,7.005,29.5,15S22.995,29.5,15,29.5z M15,5.5
		c-5.238,0-9.5,4.262-9.5,9.5s4.262,9.5,9.5,9.5s9.5-4.262,9.5-9.5S20.238,5.5,15,5.5z"/>
</g>
<g>
	<path fill="#18488D" d="M-57.167,15c0-7.995,6.505-14.5,14.5-14.5s14.5,6.505,14.5,14.5s-6.505,14.5-14.5,14.5
		S-57.167,22.995-57.167,15z M-52.167,15c0,5.238,4.262,9.5,9.5,9.5s9.5-4.262,9.5-9.5s-4.262-9.5-9.5-9.5S-52.167,9.762-52.167,15z
		"/>
</g>
<g id="Arrow_28">
	<rect x="-12.75" y="83.624" fill="#7E361A" width="113.667" height="53"/>
	<g>
		<polygon fill="#757676" points="182.919,-9.414 187.124,-9.414 192.081,-4.457 187.124,0.5 182.919,0.5 187.741,-4.457 		"/>
	</g>
	<g>
		<polygon fill="#757676" points="145.331,-10.457 141.126,-10.457 136.169,-5.5 141.126,-0.543 145.331,-0.543 140.509,-5.5 		"/>
	</g>
	<g>
		<polygon fill="#333333" points="192.169,28.043 196.374,28.043 201.331,33 196.374,37.957 192.169,37.957 196.991,33 		"/>
	</g>
	<g>
		<polygon fill="#333333" points="141.664,28.043 137.459,28.043 132.502,33 137.459,37.957 141.664,37.957 136.842,33 		"/>
	</g>
	<g opacity="0.75">
		<polygon fill="#FFFFFF" points="11.419,10.043 15.624,10.043 20.581,15 15.624,19.957 11.419,19.957 16.241,15 		"/>
	</g>
	<g>
		<polygon fill="#18488D" points="-39.086,10.043 -43.291,10.043 -48.248,15 -43.291,19.957 -39.086,19.957 -43.908,15 		"/>
	</g>
	<g opacity="0.75">
		<polygon fill="#FFFFFF" points="69.086,103.71 73.291,103.71 78.248,108.667 73.291,113.624 69.086,113.624 73.908,108.667 		"/>
	</g>
	<g opacity="0.75">
		<polygon fill="#FFFFFF" points="18.581,103.71 14.376,103.71 9.419,108.667 14.376,113.624 18.581,113.624 13.759,108.667 		"/>
	</g>
</g>
<g opacity="0.75">
	<path fill="#FFFFFF" d="M72.667,123.167c-7.995,0-14.5-6.505-14.5-14.5s6.505-14.5,14.5-14.5s14.5,6.505,14.5,14.5
		S80.662,123.167,72.667,123.167z M72.667,99.167c-5.238,0-9.5,4.262-9.5,9.5s4.262,9.5,9.5,9.5s9.5-4.262,9.5-9.5
		S77.905,99.167,72.667,99.167z"/>
</g>
<g opacity="0.75">
	<path fill="#FFFFFF" d="M0.5,108.667c0-7.995,6.505-14.5,14.5-14.5s14.5,6.505,14.5,14.5s-6.505,14.5-14.5,14.5
		S0.5,116.662,0.5,108.667z M5.5,108.667c0,5.238,4.262,9.5,9.5,9.5s9.5-4.262,9.5-9.5s-4.262-9.5-9.5-9.5S5.5,103.429,5.5,108.667z
		"/>
</g>
</svg>
